<mxfile host="app.diagrams.net" modified="2020-12-09T03:57:35.925Z" agent="5.0 (Windows NT 10.0; Win64; x64) AppleWebKit/537.36 (KHTML, like Gecko) Chrome/87.0.4280.88 Safari/537.36" etag="0itAVx2HMf1uhI0rcISa" version="13.11.0" type="github">
  <diagram id="C5RBs43oDa-KdzZeNtuy" name="Page-1">
    <mxGraphModel dx="2031" dy="1089" grid="1" gridSize="10" guides="1" tooltips="1" connect="1" arrows="1" fold="1" page="1" pageScale="1" pageWidth="827" pageHeight="1169" math="0" shadow="0">
      <root>
        <mxCell id="WIyWlLk6GJQsqaUBKTNV-0" />
        <mxCell id="WIyWlLk6GJQsqaUBKTNV-1" parent="WIyWlLk6GJQsqaUBKTNV-0" />
        <mxCell id="NPS22-EtRlqtYrhIrbcp-4" value="VeriTabaniIslemler" style="swimlane;fontStyle=1;align=center;verticalAlign=top;childLayout=stackLayout;horizontal=1;startSize=26;horizontalStack=0;resizeParent=1;resizeParentMax=0;resizeLast=0;collapsible=1;marginBottom=0;" vertex="1" parent="WIyWlLk6GJQsqaUBKTNV-1">
          <mxGeometry x="40" y="130" width="820" height="250" as="geometry" />
        </mxCell>
        <mxCell id="NPS22-EtRlqtYrhIrbcp-6" value="" style="line;strokeWidth=1;fillColor=none;align=left;verticalAlign=middle;spacingTop=-1;spacingLeft=3;spacingRight=3;rotatable=0;labelPosition=right;points=[];portConstraint=eastwest;" vertex="1" parent="NPS22-EtRlqtYrhIrbcp-4">
          <mxGeometry y="26" width="820" height="8" as="geometry" />
        </mxCell>
        <mxCell id="NPS22-EtRlqtYrhIrbcp-7" value="+ Baglantı():Connection&#xa;+VeriEkleAraba(String:araba_id, String:Marka,String:Seri,String:Model,String:Yıl,String:Yakıt,String:Vites,int:KM,String:Kasa,&#xa;String:Motor_Gucu,String:Motor_Hacmi,String:Çekiş,String:Renk,String:Garanti,String:Plaka):void&#xa;+VeriGetirAraba(int:id):Arabalar&#xa;+VeriGetiAraba():Arabalar&#xa;+VeriEkleMusteri(String:id,String:ad,String:soyad,String:TelNo):void&#xa;+VeriGetirMusteri(int:id):Musteriler&#xa;+VeriGetirMusteri():Musteriler&#xa;+VeriEkleHesapTip(String:id, String:personel_tip, String:admin_id, String:admin_tip):void&#xa;+VeriGetirHesapTip(int:id):HesapTip&#xa;+VeriGetirHesapTip():HesapTip&#xa;" style="text;strokeColor=none;fillColor=none;align=left;verticalAlign=top;spacingLeft=4;spacingRight=4;overflow=hidden;rotatable=0;points=[[0,0.5],[1,0.5]];portConstraint=eastwest;fontSize=14;" vertex="1" parent="NPS22-EtRlqtYrhIrbcp-4">
          <mxGeometry y="34" width="820" height="216" as="geometry" />
        </mxCell>
        <mxCell id="NPS22-EtRlqtYrhIrbcp-9" value="&lt;div style=&quot;font-size: 9px&quot;&gt;&lt;br&gt;&lt;/div&gt;" style="text;html=1;align=center;verticalAlign=middle;resizable=0;points=[];autosize=1;fontSize=81;" vertex="1" parent="WIyWlLk6GJQsqaUBKTNV-1">
          <mxGeometry x="300" y="350" width="20" height="100" as="geometry" />
        </mxCell>
        <mxCell id="NPS22-EtRlqtYrhIrbcp-10" value="&lt;div style=&quot;font-size: 11px&quot;&gt;&lt;br&gt;&lt;/div&gt;" style="text;html=1;align=center;verticalAlign=middle;resizable=0;points=[];autosize=1;fontSize=14;" vertex="1" parent="WIyWlLk6GJQsqaUBKTNV-1">
          <mxGeometry x="220" y="410" width="20" height="20" as="geometry" />
        </mxCell>
        <mxCell id="NPS22-EtRlqtYrhIrbcp-16" value="Classname" style="swimlane;fontStyle=0;childLayout=stackLayout;horizontal=1;startSize=26;fillColor=none;horizontalStack=0;resizeParent=1;resizeParentMax=0;resizeLast=0;collapsible=1;marginBottom=0;fontSize=14;" vertex="1" parent="WIyWlLk6GJQsqaUBKTNV-1">
          <mxGeometry x="1130" y="350" width="140" height="104" as="geometry" />
        </mxCell>
        <mxCell id="NPS22-EtRlqtYrhIrbcp-17" value="+ field: type" style="text;strokeColor=none;fillColor=none;align=left;verticalAlign=top;spacingLeft=4;spacingRight=4;overflow=hidden;rotatable=0;points=[[0,0.5],[1,0.5]];portConstraint=eastwest;" vertex="1" parent="NPS22-EtRlqtYrhIrbcp-16">
          <mxGeometry y="26" width="140" height="26" as="geometry" />
        </mxCell>
        <mxCell id="NPS22-EtRlqtYrhIrbcp-18" value="+ field: type" style="text;strokeColor=none;fillColor=none;align=left;verticalAlign=top;spacingLeft=4;spacingRight=4;overflow=hidden;rotatable=0;points=[[0,0.5],[1,0.5]];portConstraint=eastwest;" vertex="1" parent="NPS22-EtRlqtYrhIrbcp-16">
          <mxGeometry y="52" width="140" height="26" as="geometry" />
        </mxCell>
        <mxCell id="NPS22-EtRlqtYrhIrbcp-19" value="+ field: type" style="text;strokeColor=none;fillColor=none;align=left;verticalAlign=top;spacingLeft=4;spacingRight=4;overflow=hidden;rotatable=0;points=[[0,0.5],[1,0.5]];portConstraint=eastwest;" vertex="1" parent="NPS22-EtRlqtYrhIrbcp-16">
          <mxGeometry y="78" width="140" height="26" as="geometry" />
        </mxCell>
      </root>
    </mxGraphModel>
  </diagram>
</mxfile>
